<?xml version="1.0" encoding="iso-8859-1"?>
<!-- Generator: Adobe Illustrator 19.0.0, SVG Export Plug-In . SVG Version: 6.00 Build 0)  -->
<svg version="1.1" id="Capa_1" xmlns="http://www.w3.org/2000/svg" xmlns:xlink="http://www.w3.org/1999/xlink" x="0px" y="0px"
	 viewBox="0 0 512 512" style="enable-background:new 0 0 512 512;" xml:space="preserve">
<ellipse style="fill:#81D4AE;" cx="256.002" cy="366.85" rx="157.24" ry="145.15"/>
<path style="opacity:0.5;fill:#FFFFFF;enable-background:new    ;" d="M318.604,233.672c-19.184-7.695-40.351-11.97-62.602-11.97
	s-43.417,4.276-62.602,11.97c-43.087,22.173-72.489,66.512-72.489,117.602c0,73.282,60.482,132.689,135.091,132.689
	s135.091-59.407,135.091-132.689C391.093,300.184,361.691,255.846,318.604,233.672z"/>
<path style="opacity:0.1;enable-background:new    ;" d="M256.002,221.702c-85.47,0-155.012,62.947-157.19,141.358
	c28.547,57.97,88.205,97.863,157.19,97.863s128.643-39.894,157.19-97.863C411.014,284.649,341.472,221.702,256.002,221.702z"/>
<g>
	<circle style="fill:#FFD4B8;" cx="80.968" cy="269.84" r="31.29"/>
	<circle style="fill:#FFD4B8;" cx="431.032" cy="269.84" r="31.29"/>
	<circle style="fill:#FFD4B8;" cx="256.002" cy="264.38" r="175.12"/>
</g>
<path style="opacity:0.1;fill:#743631;enable-background:new    ;" d="M292.464,300.216L292.464,300.216
	c-4.62,1.06-9.275,1.911-13.951,2.563c-6.2-4.875-14.013-7.79-22.511-7.79c-8.498,0-16.311,2.916-22.511,7.79
	c-4.676-0.652-9.331-1.503-13.951-2.563l0,0c-20.071-4.605-39.214,10.643-39.214,31.235c0,20.592,19.143,35.84,39.214,31.235l0,0
	c4.62-1.06,9.275-1.911,13.951-2.563c6.2,4.874,14.013,7.79,22.511,7.79c8.498,0,16.311-2.916,22.511-7.79
	c4.676,0.652,9.331,1.503,13.951,2.563l0,0c20.071,4.605,39.214-10.643,39.214-31.235S312.535,295.611,292.464,300.216z"/>
<path style="opacity:0.1;fill:#513130;enable-background:new    ;" d="M273.542,421.967c-96.718,0-175.123-78.405-175.123-175.123
	c0-43.895,16.151-84.017,42.833-114.75c-36.985,32.109-60.373,79.468-60.373,132.291c0,96.718,78.405,175.123,175.123,175.123
	c52.823,0,100.182-23.389,132.291-60.373C357.559,405.815,317.437,421.967,273.542,421.967z"/>
<g>
	<path style="fill:#81D4AE;" d="M292.464,286.924L292.464,286.924c-23.996,5.506-48.928,5.506-72.925,0l0,0
		c-20.071-4.605-39.214,10.643-39.214,31.235l0,0c0,20.592,19.143,35.84,39.214,31.235l0,0c23.996-5.506,48.928-5.506,72.925,0l0,0
		c20.071,4.605,39.214-10.643,39.214-31.235l0,0C331.678,297.567,312.535,282.319,292.464,286.924z"/>
	<circle style="fill:#81D4AE;" cx="256.002" cy="318.16" r="36.462"/>
</g>
<circle style="opacity:0.5;fill:#FFFFFF;enable-background:new    ;" cx="256.002" cy="318.16" r="36.462"/>
<g>
	<path style="fill:#4A5058;" d="M275.966,103.855c-31.163,0-56.641-25.216-56.901-56.436c-0.216-25.93,20.704-47.202,46.635-47.418
		c0.11,0,0.222-0.001,0.331-0.001c21.422,0,38.936,17.334,39.115,38.796c0.151,18.085-14.439,32.919-32.523,33.07
		c-0.021,0-0.042,0-0.064,0c-4.113,0-7.464-3.317-7.498-7.438c-0.035-4.142,3.295-7.528,7.437-7.562
		c4.754-0.04,9.208-1.928,12.541-5.318c3.333-3.389,5.148-7.874,5.108-12.628c-0.054-6.443-2.613-12.479-7.207-16.998
		c-4.594-4.518-10.686-6.955-17.115-6.923c-17.66,0.147-31.907,14.634-31.761,32.294c0.193,23.108,19.173,41.733,42.258,41.56
		c0.021,0,0.042,0,0.064,0c4.113,0,7.464,3.317,7.498,7.438c0.035,4.142-3.295,7.528-7.437,7.562
		C276.288,103.854,276.125,103.855,275.966,103.855z"/>
	<path style="fill:#4A5058;" d="M160.376,259.783c-4.142,0-7.5-3.358-7.5-7.5v-18.788c0-4.142,3.358-7.5,7.5-7.5s7.5,3.358,7.5,7.5
		v18.788C167.876,256.425,164.518,259.783,160.376,259.783z"/>
	<path style="fill:#4A5058;" d="M351.628,259.783c-4.142,0-7.5-3.358-7.5-7.5v-18.788c0-4.142,3.358-7.5,7.5-7.5s7.5,3.358,7.5,7.5
		v18.788C359.128,256.425,355.771,259.783,351.628,259.783z"/>
</g>
<g>
</g>
<g>
</g>
<g>
</g>
<g>
</g>
<g>
</g>
<g>
</g>
<g>
</g>
<g>
</g>
<g>
</g>
<g>
</g>
<g>
</g>
<g>
</g>
<g>
</g>
<g>
</g>
<g>
</g>
</svg>
