<?xml version="1.0" encoding="iso-8859-1"?>
<!-- Generator: Adobe Illustrator 19.0.0, SVG Export Plug-In . SVG Version: 6.00 Build 0)  -->
<svg version="1.1" id="Capa_1" xmlns="http://www.w3.org/2000/svg" xmlns:xlink="http://www.w3.org/1999/xlink" x="0px" y="0px"
	 viewBox="0 0 512 512" style="enable-background:new 0 0 512 512;" xml:space="preserve">
<g>
	<path style="fill:#B6A6FF;" d="M340.73,328.919h-31.928l-68.999,91.54L308.802,512l0,0h47.341l0,0l7.726-8.295l7.726,8.295l0,0
		h46.046C430.695,390.361,340.73,328.919,340.73,328.919z"/>
	<path style="fill:#B6A6FF;" d="M170.803,328.919h-31.928c0,0-89.965,61.442-76.91,183.081h46.046l0,0l7.726-8.982l7.726,8.982l0,0
		h47.341l68.999-91.54L170.803,328.919z"/>
</g>
<rect x="170.805" y="328.916" style="fill:#EEECED;" width="138.003" height="183.084"/>
<g>
	<path style="fill:#A092E5;" d="M108.01,512v-70.8c0-4.268,3.459-7.726,7.726-7.726c4.267,0,7.726,3.458,7.726,7.726V512H108.01z"/>
	<path style="fill:#A092E5;" d="M356.143,512v-70.8c0-4.268,3.459-7.726,7.726-7.726c4.267,0,7.726,3.458,7.726,7.726V512H356.143z"
		/>
</g>
<path style="fill:#AB4F3F;" d="M373.099,42.414c51.106-50.14,98.495-33.305,118.068,0c19.573,33.305,1.03,64.21,0,98.206
	s18.543,37.087,18.543,37.087s1.027,37.961-33.997,37.961L373.099,42.414z"/>
<path style="fill:#C36E5C;" d="M15.733,215.667C15.733,96.747,116.251,0,239.802,0s224.07,96.747,224.07,215.667H15.733z"/>
<path style="fill:#AB4F3F;" d="M265.557,1.433C257.103,0.498,248.513,0,239.802,0C116.251,0,15.733,96.747,15.733,215.667h51.509
	C67.242,105.131,154.091,13.768,265.557,1.433z"/>
<circle style="fill:#E3B098;" cx="433.625" cy="227.433" r="43.69"/>
<path style="fill:#FBC4AC;" d="M435.863,215.318c-0.043-22.56-7.457-44.5-20.74-62.735c-27.271-37.438-85.014-88.852-175.321-34.559
	c-90.308-54.293-148.05-2.879-175.321,34.559c-13.283,18.235-20.696,40.175-20.74,62.735c0,0.116,0,0.233,0,0.349
	c0,103.641,87.78,187.659,196.061,187.659s196.061-84.017,196.061-187.659C435.864,215.551,435.864,215.435,435.863,215.318z"/>
<path style="fill:#FF8087;" d="M132.534,240.547H99.329c-4.267,0-7.726,3.459-7.726,7.726c0,4.267,3.459,7.726,7.726,7.726h33.205
	c4.267,0,7.726-3.459,7.726-7.726C140.26,244.007,136.801,240.547,132.534,240.547z"/>
<g>
	<path style="fill:#3A484A;" d="M115.931,183.325c-15.069,0-27.33,12.26-27.33,27.33c0,4.267,3.459,7.726,7.726,7.726
		c4.267,0,7.726-3.459,7.726-7.726c0-6.549,5.328-11.877,11.877-11.877s11.877,5.328,11.877,11.877c0,4.267,3.459,7.726,7.726,7.726
		s7.726-3.459,7.726-7.726C143.261,195.585,131.002,183.325,115.931,183.325z"/>
	<path style="fill:#3A484A;" d="M362.595,183.325c-15.069,0-27.33,12.26-27.33,27.33c0,4.267,3.459,7.726,7.726,7.726
		c4.267,0,7.726-3.459,7.726-7.726c0-6.549,5.328-11.877,11.877-11.877c6.549,0,11.877,5.328,11.877,11.877
		c0,4.267,3.459,7.726,7.726,7.726c4.267,0,7.726-3.459,7.726-7.726C389.925,195.585,377.664,183.325,362.595,183.325z"/>
	<path style="fill:#3A484A;" d="M264.569,231.61c-3.425-2.541-8.266-1.825-10.809,1.602c-3.458,4.662-8.742,7.335-14.498,7.335
		s-11.039-2.673-14.498-7.335c-2.542-3.426-7.381-4.144-10.809-1.602c-3.427,2.542-4.144,7.381-1.602,10.809
		c6.309,8.504,16.368,13.582,26.908,13.582s20.6-5.077,26.908-13.582C268.713,238.992,267.997,234.152,264.569,231.61z"/>
</g>
<path style="fill:#FF8087;" d="M379.189,240.547h-33.205c-4.267,0-7.726,3.459-7.726,7.726c0,4.267,3.459,7.726,7.726,7.726h33.205
	c4.267,0,7.726-3.459,7.726-7.726C386.915,244.007,383.456,240.547,379.189,240.547z"/>
<path style="fill:#E3B098;" d="M211.368,401.354c-77.487-39.647-130.217-117.825-130.217-207.8c0-0.146,0-0.293,0-0.439
	c0.055-28.309,9.357-55.841,26.025-78.723c1.275-1.751,2.612-3.528,3.993-5.321c-20.398,11.773-35.921,28.729-46.689,43.512
	c-6.954,9.547-12.281,20.115-15.803,31.251c-0.875-0.057-1.767-0.096-2.697-0.096c-24.131,0-43.694,19.562-43.694,43.694
	s19.562,43.694,43.694,43.694c2.263,0,4.36-0.172,6.303-0.504C74.147,339.042,135.768,390.84,211.368,401.354z"/>
<g>
</g>
<g>
</g>
<g>
</g>
<g>
</g>
<g>
</g>
<g>
</g>
<g>
</g>
<g>
</g>
<g>
</g>
<g>
</g>
<g>
</g>
<g>
</g>
<g>
</g>
<g>
</g>
<g>
</g>
</svg>
